<svg xmlns="http://www.w3.org/2000/svg" width="77" height="66" viewBox="0 0 77 66" fill="none">
  <path d="M74.9587 13.5686C74.914 12.9369 74.4223 12.431 73.7964 12.3729L15.631 7.09403C12.8018 -0.0154252 7.91611 -0.13789 6.3546 0.0393626C2.79091 0.422873 0 3.44262 0 6.91033C0 7.62256 0.574788 8.19944 1.27731 8.19944C1.97983 8.19944 2.55461 7.61934 2.55461 6.91033C2.55461 4.7414 4.34284 2.8464 6.62284 2.60147C7.7788 2.47901 11.3361 2.63692 13.4916 8.6603C13.5043 8.71186 13.5235 8.76343 13.5426 8.81177C13.8332 9.64325 14.0983 10.5843 14.325 11.6478L20.6796 38.8255C20.6796 38.832 20.6796 38.8384 20.6796 38.8384L22.8255 49.0611C19.1947 50.0601 16.4996 53.3828 16.4996 57.363C16.4996 62.1262 20.3379 66 25.0576 66C29.3365 66 32.8619 62.803 33.4846 58.6553H57.0733C57.6959 62.803 61.2213 66 65.4971 66C70.2167 66 74.0582 62.1262 74.0582 57.363C74.0582 52.5997 70.2167 48.7259 65.4971 48.7259C61.2181 48.7259 57.6959 51.9229 57.0733 56.0706H33.4846C32.8779 52.0293 29.509 48.9128 25.3737 48.7581L24.4093 44.1689H67.247C70.9767 44.1689 73.2599 43.5211 74.649 42.0676C76.3893 40.2532 76.4372 37.6073 76.3095 33.7368L74.9587 13.5686ZM65.5003 51.3041C68.8117 51.3041 71.5036 54.0209 71.5036 57.3597C71.5036 60.6985 68.8117 63.4153 65.5003 63.4153C62.1921 63.4153 59.5033 60.6985 59.5033 57.3597C59.5033 54.0209 62.1921 51.3041 65.5003 51.3041ZM31.0609 57.3597C31.0609 60.6985 28.369 63.4153 25.0608 63.4153C21.7525 63.4153 19.0606 60.6985 19.0606 57.3597C19.0606 54.0209 21.7525 51.3041 25.0608 51.3041C28.369 51.3041 31.0609 54.0209 31.0609 57.3597ZM72.8193 40.2758C71.9603 41.1717 70.1944 41.5874 67.2534 41.5874H23.9527L23.1895 38.3389L23.1831 38.3034L23.1799 38.3002L22.0942 33.682H69.5621C70.2678 33.682 70.8394 33.1019 70.8394 32.3929C70.8394 31.6838 70.2646 31.1037 69.5621 31.1037H21.4875L19.6737 23.3723H49.8118C50.5175 23.3723 51.0891 22.7922 51.0891 22.0832C51.0891 21.3742 50.5143 20.7941 49.8118 20.7941H19.067L17.1383 12.5824L16.8189 11.0999C16.7199 10.6359 16.6146 10.1911 16.5028 9.76249L72.4808 14.8448L73.7613 33.8657C73.8666 37.0337 73.8603 39.1897 72.8193 40.2758Z" fill="url(#paint0_linear_356_1609)"/>
  <defs>
    <linearGradient id="paint0_linear_356_1609" x1="-2.58824" y1="2.09074e-07" x2="73.7647" y2="63.4118" gradientUnits="userSpaceOnUse">
      <stop stop-color="#3454D8"/>
      <stop offset="1" stop-color="#5EC291"/>
    </linearGradient>
  </defs>
</svg>