<svg xmlns="http://www.w3.org/2000/svg" width="72" height="72" viewBox="0 0 72 72" fill="none">
  <path d="M71.143 25.5243C68.4023 24.9702 65.6466 24.7933 62.8902 24.9913V23.8377C62.8902 22.3766 61.7014 21.1878 60.2403 21.1878H57.361C56.0446 21.1878 54.9583 20.4615 54.4543 19.2453C53.9503 18.0292 54.2054 16.7472 55.1368 15.8167L57.1724 13.7811C58.2054 12.7481 58.2054 11.0662 57.1724 10.0332L52.857 5.7178C52.3577 5.21849 51.6924 4.94301 50.9834 4.94301C50.2743 4.94301 49.6091 5.21771 49.1098 5.71702L47.0734 7.75261C46.1428 8.68392 44.8609 8.93905 43.6447 8.43505C42.4285 7.93183 41.7022 6.84477 41.7022 5.52841V2.64994C41.7022 1.1888 40.5134 0 39.0522 0H32.9493C31.4882 0 30.2994 1.1888 30.2994 2.64994V5.52919C30.2994 6.84555 29.5731 7.93182 28.3569 8.43583C27.1407 8.93905 25.8587 8.6847 24.9282 7.75339L22.8926 5.7178C22.3933 5.21849 21.7273 4.94379 21.0182 4.94379C20.3091 4.94379 19.6439 5.21849 19.1446 5.7178L14.8292 10.0332C13.7961 11.0662 13.7961 12.7481 14.8292 13.7811L16.8648 15.8167C17.7953 16.7472 18.0505 18.0292 17.5465 19.2453C17.0432 20.4615 15.9562 21.1878 14.6398 21.1878H11.7605C10.2994 21.1878 9.11055 22.3766 9.11055 23.8377V24.9913C6.35414 24.7941 3.59773 24.971 0.857758 25.5243C0.359225 25.6252 0 26.0635 0 26.5722V53.7995C0 54.3903 0.478967 54.8685 1.06907 54.8685H10.6672C11.1227 54.8685 11.5289 54.5797 11.6776 54.1493L12.119 52.876C15.7989 54.251 18.6335 57.2007 20.2137 58.8458C20.3717 59.0101 20.5189 59.1635 20.6535 59.3013L31.9577 70.8848C32.6535 71.5977 33.5919 71.9937 34.5999 72C34.6077 72 34.6155 72 34.6234 72C35.6369 72 36.587 71.6079 37.3007 70.8942C37.7578 70.4371 38.0724 69.8909 38.2453 69.3109C38.8981 69.6827 39.6408 69.8815 40.4156 69.8815C41.5887 69.8815 42.6891 69.4268 43.514 68.6019C44.2379 67.8787 44.6762 66.9435 44.7724 65.9332C45.1692 66.049 45.5856 66.1085 46.0106 66.1085C47.1837 66.1085 48.2841 65.6538 49.109 64.8289C49.9088 64.029 50.3346 62.9944 50.3854 61.9449C50.6867 62.0091 50.9975 62.042 51.3136 62.042C52.4868 62.042 53.5872 61.5873 54.4121 60.7632C56.0219 59.1533 56.1119 56.6325 54.6789 54.8693C55.0726 54.7949 55.4655 54.6807 55.8513 54.5234C56.9791 54.0632 58.02 53.5404 59.0264 53.0341C59.2902 52.9018 59.5469 52.7734 59.802 52.6467L60.3224 54.1501C60.4719 54.5805 60.8773 54.8693 61.3328 54.8693H70.9309C71.5218 54.8693 72 54.3903 72 53.8002V26.573C72.0008 26.0635 71.6423 25.6245 71.143 25.5243ZM11.2502 23.8377C11.2502 23.5607 11.4842 23.3259 11.7621 23.3259H14.6414C16.8194 23.3259 18.6907 22.0761 19.5242 20.064C20.3577 18.0518 19.9186 15.8449 18.3784 14.3047L16.3428 12.2691C16.1464 12.0734 16.1464 11.7416 16.3428 11.546L20.6582 7.2306C20.7865 7.10225 20.9399 7.08268 21.0198 7.08268C21.0996 7.08268 21.253 7.10225 21.3813 7.2306L23.4169 9.26619C24.9572 10.8064 27.1642 11.2454 29.1763 10.4119C31.1884 9.57845 32.4391 7.708 32.4391 5.52919V2.64994C32.4391 2.3729 32.6731 2.13811 32.9501 2.13811H39.053C39.3301 2.13811 39.5641 2.37211 39.5641 2.64994V5.52919C39.5641 7.70721 40.8139 9.57845 42.8268 10.4119C44.8398 11.2454 47.046 10.8064 48.5862 9.26619L50.6226 7.2306C50.7509 7.10225 50.9043 7.08268 50.9841 7.08268C51.064 7.08268 51.2174 7.10225 51.3457 7.2306L55.6611 11.546C55.7903 11.6743 55.809 11.8277 55.809 11.9075C55.809 11.9873 55.7895 12.1407 55.6611 12.2691L53.6255 14.3047C52.0853 15.8449 51.6463 18.0518 52.4797 20.064C53.3132 22.0761 55.1845 23.3259 57.3625 23.3259H60.2418C60.5189 23.3259 60.7537 23.5599 60.7537 23.8377V25.2206C57.8932 25.6268 55.0366 26.4345 52.1988 27.6452C51.6823 27.8659 51.424 28.4481 51.6079 28.9788L52.3099 31.0049C50.6586 31.0096 49.1708 30.7616 47.73 30.3992C48.0697 29.266 48.241 28.0897 48.241 26.8892C48.241 20.1414 42.7509 14.6514 36.0031 14.6514C29.2553 14.6514 23.7652 20.1414 23.7652 26.8892C23.7652 28.8011 24.2019 30.652 25.0393 32.3323C23.2213 32.2571 21.4846 31.9097 19.6001 31.2812L20.3976 28.978C20.5815 28.4474 20.3232 27.8651 19.8067 27.6444C16.9689 26.4337 14.1123 25.626 11.2518 25.2198V23.8377H11.2502ZM32.0673 31.2609L31.7159 31.5919C30.1671 31.9417 28.7717 32.1726 27.4608 32.279C26.4402 30.6676 25.9018 28.8167 25.9018 26.8892C25.9018 21.3208 30.4324 16.7903 36.0008 16.7903C41.5692 16.7903 46.0998 21.3208 46.0998 26.8892C46.0998 27.8901 45.955 28.8708 45.6701 29.8138C45.3203 29.7058 44.9689 29.5947 44.6159 29.4828C43.8662 29.2456 43.0906 28.9999 42.2939 28.7729C38.5968 27.7203 34.8691 28.6274 32.0673 31.2609ZM9.90726 52.7304H2.13892V27.4605C7.41538 26.5589 12.7568 27.1545 18.0434 29.2347L9.90726 52.7304ZM52.9 59.2504C52.479 59.6714 51.9163 59.9031 51.3144 59.9031C50.7126 59.9031 50.1491 59.6714 49.728 59.2504L42.8221 52.1896C42.4097 51.767 41.7327 51.7584 41.3101 52.1716C40.8875 52.5841 40.8789 53.261 41.2921 53.6836L47.5891 60.1355C47.5907 60.1371 47.5915 60.1379 47.593 60.1387C47.5946 60.1402 47.5962 60.1426 47.5985 60.1441C48.0196 60.5652 48.2512 61.1287 48.2512 61.7297C48.2512 62.3315 48.0196 62.8942 47.5985 63.3161C47.1775 63.7371 46.614 63.9688 46.0121 63.9688C45.4103 63.9688 44.8468 63.7371 44.4265 63.3161L37.2272 55.9618C36.8147 55.5392 36.1377 55.5306 35.7151 55.9438C35.2925 56.3563 35.2839 57.0332 35.6971 57.4558L41.9941 63.9077C41.9957 63.9093 41.9973 63.9101 41.9988 63.9117C42.0004 63.9132 42.002 63.9148 42.0035 63.9163L42.0082 63.921C42.4269 64.3413 42.657 64.9032 42.657 65.5027C42.657 66.1045 42.4254 66.6672 42.0043 67.0883C41.5833 67.5093 41.0198 67.741 40.4179 67.741C39.8161 67.741 39.2534 67.5093 38.8323 67.0883L31.0155 59.1166C30.603 58.6939 29.926 58.6853 29.5034 59.0986C29.0808 59.511 29.0722 60.188 29.4854 60.6106L35.7824 67.0625C35.784 67.064 35.7856 67.0648 35.7871 67.0664C35.7887 67.0679 35.7903 67.0695 35.7918 67.0711C36.4281 67.7081 36.4281 68.7435 35.7918 69.3798C35.4827 69.6889 35.0687 69.8595 34.6265 69.8595C34.6234 69.8595 34.6194 69.8595 34.6163 69.8595C34.1843 69.8572 33.7852 69.6897 33.4917 69.3892L22.1843 57.8072C22.0528 57.6726 21.9104 57.5239 21.7562 57.3643C20.0454 55.583 16.9752 52.3892 12.8194 50.8545L18.8973 33.3035C21.2694 34.0955 23.4584 34.4837 25.8 34.4837C26.7838 34.4837 27.7957 34.4132 28.8585 34.2771L26.2571 36.7235C25.0479 37.8607 24.4085 39.3383 24.4085 40.9982V52.0253C24.4085 52.6161 24.8875 53.0943 25.4776 53.0943C30.1937 53.0943 35.0718 50.1133 35.0718 45.1249C35.0718 43.3734 36.4571 42.1275 37.5081 41.2705L49.4854 53.2407C50.0607 53.8159 50.7212 54.2518 51.4287 54.5429L52.882 56.062C53.7625 56.98 53.7695 58.3809 52.9 59.2504ZM58.0669 51.1221C57.0972 51.6097 56.0939 52.1137 55.0436 52.5418C53.6075 53.1288 52.0955 52.8235 50.9982 51.7271L38.3346 39.0714C37.9339 38.6707 37.2905 38.6527 36.8671 39.0291C36.7498 39.1332 36.5901 39.2623 36.4054 39.4118C35.1923 40.3909 32.9337 42.2136 32.9337 45.1249C32.9337 47.1996 31.7143 48.545 30.6914 49.3088C29.5519 50.1595 28.083 50.7152 26.5474 50.8936V40.9982C26.5474 39.9135 26.9317 39.0244 27.7222 38.2817L33.5316 32.8191C35.7715 30.7138 38.7517 29.9883 41.7077 30.8304C42.4747 31.0488 43.2346 31.289 43.9695 31.5223C46.7001 32.3863 49.5191 33.2753 53.0409 33.1274L59.0953 50.6103C58.7494 50.7801 58.405 50.9523 58.0669 51.1221ZM69.8626 52.7304H62.0951L53.9581 29.2347C59.2448 27.1545 64.5862 26.5581 69.8626 27.4605V52.7304Z" fill="url(#paint0_linear_356_1622)"/>
  <defs>
    <linearGradient id="paint0_linear_356_1622" x1="-5.68421" y1="7.57895" x2="58.7368" y2="75.7895" gradientUnits="userSpaceOnUse">
      <stop stop-color="#3454D8"/>
      <stop offset="1" stop-color="#5EC291"/>
    </linearGradient>
  </defs>
</svg>