<svg xmlns="http://www.w3.org/2000/svg" width="66" height="66" viewBox="0 0 66 66" fill="none">
  <path d="M4.50035 0C3.25035 0 2.18136 0.561172 1.38316 1.35938C0.584958 2.15758 0.000347332 3.25 0.000347332 4.5V22.5C-0.00246374 22.6988 0.0342582 22.8961 0.108379 23.0806C0.1825 23.265 0.292541 23.4329 0.432107 23.5745C0.571674 23.716 0.737983 23.8284 0.921369 23.9051C1.10475 23.9819 1.30156 24.0214 1.50035 24.0214C1.69914 24.0214 1.89594 23.9819 2.07933 23.9051C2.26271 23.8284 2.42902 23.716 2.56859 23.5745C2.70815 23.4329 2.8182 23.265 2.89232 23.0806C2.96644 22.8961 3.00316 22.6988 3.00035 22.5V4.5C3.00035 4.25 3.16574 3.81898 3.49254 3.49219C3.81933 3.16539 4.25035 3 4.50035 3H48.7504C49.0004 3 49.4314 3.16539 49.7582 3.49219C50.085 3.81898 50.2504 4.25 50.2504 4.5V12.75H17.2504C16.0004 12.75 14.9314 13.3112 14.1332 14.1094C13.335 14.9076 12.7504 16 12.7504 17.25V50.25H4.50035C4.23848 50.2499 3.81627 50.0597 3.49254 49.7344C3.1688 49.409 3.00035 48.9897 3.00035 48.7266V28.5C3.00495 28.2865 2.9639 28.0744 2.87994 27.878C2.79599 27.6816 2.67106 27.5054 2.51353 27.3612C2.35599 27.217 2.16947 27.1081 1.96645 27.0417C1.76343 26.9754 1.54858 26.9532 1.33629 26.9766C0.963474 27.0175 0.619531 27.1967 0.372248 27.4787C0.124965 27.7606 -0.00771909 28.125 0.000347332 28.5V48.7266C0.000347332 49.9738 0.561862 51.0654 1.35972 51.8672C2.15758 52.6691 3.2486 53.2495 4.50035 53.25H12.7504V61.4766C12.7504 62.7238 13.3119 63.8154 14.1097 64.6172C14.9076 65.4191 15.9986 65.9995 17.2504 66H61.5004C62.7442 66 63.8157 65.4147 64.6176 64.6172C65.4143 63.8248 65.998 62.7469 66.0004 61.5C66.0004 61.4917 66.0004 61.4841 66.0004 61.4766V17.25C66.0004 16 65.4158 14.9076 64.6176 14.1094C63.8193 13.311 62.7504 12.75 61.5004 12.75H53.2504V4.5C53.2504 3.25 52.6658 2.15758 51.8675 1.35938C51.0693 0.561172 50.0004 0 48.7504 0H4.50035ZM17.2504 15.75H61.5004C61.7504 15.75 62.1814 15.9154 62.5082 16.2422C62.835 16.569 63.0004 17 63.0004 17.25V61.5C63.0014 61.7613 62.8328 62.1849 62.5082 62.5078C62.1835 62.8307 61.7565 63 61.5004 63H17.2504C16.9885 62.9999 16.5663 62.8097 16.2425 62.4844C15.9188 62.159 15.7504 61.7397 15.7504 61.4766V17.25C15.7504 17 15.9157 16.569 16.2425 16.2422C16.5693 15.9154 17.0004 15.75 17.2504 15.75ZM37.5004 27C30.0623 27 24.0004 33.0619 24.0004 40.5C24.0004 45.5115 26.6504 49.962 30.7738 52.2891C30.9454 52.4131 31.1413 52.4995 31.3486 52.5424C31.556 52.5854 31.7701 52.584 31.9768 52.5382C32.1836 52.4925 32.3783 52.4035 32.5482 52.2772C32.7181 52.1508 32.8593 51.9899 32.9626 51.805C33.0658 51.6202 33.1288 51.4155 33.1473 51.2046C33.1658 50.9936 33.1394 50.7812 33.07 50.5812C33.0005 50.3811 32.8894 50.1981 32.7441 50.0441C32.5988 49.89 32.4226 49.7685 32.2269 49.6875C29.0548 47.8973 27.0004 44.4632 27.0004 40.5C27.0004 34.6832 31.6835 30 37.5004 30C42.6638 30 46.9188 33.7038 47.8129 38.6016L43.4769 36.1875C43.3046 36.0921 43.1151 36.0316 42.9193 36.0094C42.7236 35.9872 42.5254 36.0038 42.336 36.0582C42.1467 36.1126 41.9699 36.2037 41.8158 36.3265C41.6617 36.4492 41.5333 36.6011 41.4379 36.7734C41.3424 36.9458 41.2819 37.1353 41.2597 37.331C41.2375 37.5268 41.2541 37.725 41.3085 37.9143C41.3629 38.1037 41.4541 38.2804 41.5768 38.4345C41.6996 38.5887 41.8514 38.7171 42.0238 38.8125L48.7738 42.5625C48.9462 42.6579 49.1356 42.7185 49.3314 42.7406C49.5271 42.7628 49.7253 42.7463 49.9147 42.6918C50.104 42.6374 50.2808 42.5463 50.4349 42.4235C50.589 42.3008 50.7174 42.1489 50.8129 41.9766L54.5629 35.2266C54.7032 34.987 54.7743 34.7132 54.7683 34.4356C54.7622 34.1581 54.6793 33.8876 54.5286 33.6544C54.378 33.4212 54.1656 33.2344 53.9151 33.1147C53.6646 32.995 53.3858 32.9472 53.1097 32.9766C52.8639 33.0025 52.6282 33.0889 52.4238 33.2279C52.2193 33.3669 52.0524 33.5543 51.9379 33.7734L50.391 36.5391C48.6912 31.0269 43.5594 27 37.5004 27Z" fill="url(#paint0_linear_356_1598)"/>
  <defs>
    <linearGradient id="paint0_linear_356_1598" x1="0.651008" y1="1.33634" x2="64.4497" y2="66.4371" gradientUnits="userSpaceOnUse">
      <stop stop-color="#3454D8"/>
      <stop offset="1" stop-color="#5EC291"/>
    </linearGradient>
  </defs>
</svg>