<svg width="151" height="33" viewBox="0 0 151 33" fill="none" xmlns="http://www.w3.org/2000/svg">
<path fill-rule="evenodd" clip-rule="evenodd" d="M63.8321 3.41216C64.6139 5.17869 64.4185 7.53408 63.2458 9.10433C61.8776 10.6746 60.1186 11.656 57.9687 11.2634C56.0142 10.8709 54.0597 9.30061 53.4733 7.33779C52.887 5.1787 53.6688 3.21588 55.0369 1.84191C56.6005 0.271651 59.1413 -0.120913 61.0958 0.860496C62.2685 1.25306 63.2458 2.43075 63.8321 3.41216Z" fill="#D92A28"/>
<path fill-rule="evenodd" clip-rule="evenodd" d="M150.024 2.82308L148.46 8.9086H65.5898C66.5671 7.14183 66.5671 4.39353 65.5898 2.62677H150.024V2.82308Z" fill="#D92A28"/>
<path fill-rule="evenodd" clip-rule="evenodd" d="M52.1048 2.62677C51.1275 4.39353 51.1275 7.14183 52.1048 8.9086H4.02441V8.71229L5.588 2.62677H52.1048Z" fill="#D92A28"/>
<path fill-rule="evenodd" clip-rule="evenodd" d="M24.7416 13.815V14.2076L23.178 19.3109C19.6599 18.9183 15.7509 18.7221 12.0374 19.1146C10.4738 19.3109 9.30113 20.6849 8.91023 22.0588C8.51933 23.6291 7.54209 25.7882 8.71478 27.3585C9.88747 28.3399 11.842 27.751 13.2101 27.751H13.9919C14.1873 27.1622 14.3828 26.377 14.5782 25.5919C13.7964 25.3956 13.0147 25.5919 12.2329 25.5919C12.4283 24.2179 12.8192 23.0403 13.2101 21.6663L22.5916 21.8626V22.0588L20.0508 31.2841L19.8554 31.4804C16.1418 32.2655 12.2329 32.4618 8.32388 32.4618C5.78305 32.2655 3.43767 32.2655 1.48318 30.6952C-1.05765 28.3399 0.310487 24.2179 0.896833 21.2737C1.67863 18.5258 2.65587 15.189 5.78305 13.815C10.0829 12.0485 15.36 12.6373 20.0508 13.0299C21.6144 13.2262 23.178 13.4225 24.7416 13.815Z" fill="#D92A28"/>
<path fill-rule="evenodd" clip-rule="evenodd" d="M61.2902 13.03L56.404 32.2656C53.6677 32.2656 51.1269 32.2656 48.3906 32.2656L48.5861 31.4804L53.2768 12.8337H61.0948L61.2902 13.03Z" fill="#D92A28"/>
<path fill-rule="evenodd" clip-rule="evenodd" d="M75.7541 13.03L76.145 22.844L76.3404 23.0403C78.2949 19.5073 80.0539 16.1705 82.2039 12.8337H92.9535V13.03L88.0673 32.0693L87.8719 32.2656H80.0539C80.6403 29.1251 81.6175 25.9846 82.2039 22.844L82.0084 23.2366L76.145 32.2656H75.9495H71.8451L71.6496 31.873L70.6724 22.4515V22.6478L68.1316 32.2656H60.3136L60.1182 32.0693L61.6818 26.1808L65.0044 12.8337H65.1998H75.5586L75.7541 13.03Z" fill="#D92A28"/>
<path fill-rule="evenodd" clip-rule="evenodd" d="M107.416 13.6188L107.807 22.844L108.98 21.0775L113.475 12.8337H124.42V13.03L119.534 32.2656C116.798 32.2656 114.061 32.2656 111.521 32.2656L111.716 31.2842L113.866 22.844L113.28 23.4329L107.807 32.0693L107.612 32.2656H103.312V31.873L102.335 22.4515L101.944 24.0217L99.7937 32.2656H99.5982H91.7803L95.1029 18.9184L96.6665 12.8337H96.8619H107.221L107.416 13.6188Z" fill="#D92A28"/>
<path fill-rule="evenodd" clip-rule="evenodd" d="M147.484 13.03C146.897 14.9928 146.506 17.1519 145.92 19.1147H134.975C134.779 19.7035 134.584 20.2924 134.388 21.0775H134.584H145.334V21.2738L144.356 25.1994L133.411 25.3957C133.216 25.7883 133.02 26.5734 132.825 27.1622H133.02L133.998 27.3585H143.77C143.575 28.9288 142.988 30.499 142.597 32.2656H123.639L123.443 32.0693L127.743 15.1891C127.939 14.4039 128.134 13.6188 128.33 12.8337H147.484V13.03Z" fill="#D92A28"/>
<path fill-rule="evenodd" clip-rule="evenodd" d="M48.195 14.9928C47.6087 13.4225 45.8496 13.03 44.2861 12.8337H28.2593L23.373 32.2656C25.9139 32.2656 28.6502 32.2656 31.3864 32.2656L31.5819 32.0693C32.1682 30.1065 32.5591 27.9474 33.3409 25.7883C34.7091 27.9474 35.8818 30.1065 37.2499 32.2656H46.436C44.8724 29.5176 42.9179 26.966 41.3543 24.4143L43.3088 24.218C45.0678 24.0217 46.8269 23.0403 47.6087 21.2738C48.3905 19.5073 49.1723 17.1519 48.195 14.9928ZM40.3771 20.0961C40.1816 20.8812 39.9862 21.6664 39.2044 22.0589C37.6408 22.4515 35.6863 22.2552 34.1227 22.2552C34.3182 20.8812 34.7091 19.7035 35.1 18.3296C36.6636 18.3296 38.4226 18.1333 39.7907 18.5258C40.3771 18.7221 40.5725 19.5073 40.3771 20.0961Z" fill="#D92A28"/>
</svg>
