<svg xmlns="http://www.w3.org/2000/svg" width="112" height="39" viewBox="0 0 112 39" fill="none">
  <path d="M0.299805 20.9667H21.0898V0.331482H0.299805V20.9667Z" fill="#AC2E38"/>
  <path d="M4.16018 3.833C3.89914 3.833 3.67539 4.05771 3.69404 4.33858C3.69404 4.60074 3.91779 4.82544 4.19747 4.80672C4.45851 4.80672 4.68226 4.58201 4.66362 4.30114C4.64497 4.03898 4.42122 3.833 4.16018 3.833ZM8.29953 3.27125C6.88246 1.99793 5.89423 1.96048 3.74997 1.84813C3.74997 1.84813 2.68717 1.71706 1.8854 1.56725C1.73624 1.54853 1.49384 1.51108 1.45655 1.58598C1.38197 1.62343 1.40061 1.86686 1.4379 2.01666C1.58707 2.82184 1.71759 3.88918 1.71759 3.88918C1.82946 6.04258 1.84811 7.05374 3.11602 8.47686C3.11602 8.47686 6.58413 12.2032 9.3064 9.50674C9.3064 9.50674 9.51151 9.28204 9.43692 9.09479C9.34369 8.79518 7.53506 7.03502 6.84517 6.34218C6.13663 5.6119 5.31622 4.97524 5.12976 4.91907C5.11111 4.90034 5.05518 4.90034 5.01788 4.91907C4.86872 4.95652 4.77549 5.12504 4.77549 5.12504C4.75684 5.16249 4.71955 5.19994 4.77549 5.3123C4.90601 5.57445 5.31622 6.11748 6.19257 6.99757C7.12485 7.93383 8.37412 9.05734 8.37412 9.05734C6.78923 10.2745 4.40258 8.30833 4.40258 8.30833C2.85498 7.01629 2.38884 4.46966 2.50071 2.63459C4.32799 2.52224 6.86381 2.99037 8.15037 4.54456C8.15037 4.54456 9.43692 6.26728 9.17588 7.74657C9.17588 7.80275 9.17588 7.8402 9.19453 7.85892C9.43692 8.17725 9.84713 8.23343 10.1641 7.93383C10.1828 7.89638 10.1828 7.89638 10.22 7.8402C10.7048 5.55573 8.29953 3.27125 8.29953 3.27125ZM17.3427 4.30114C17.3427 4.03898 17.119 3.81428 16.8393 3.833C16.5782 3.833 16.3545 4.05771 16.3731 4.33858C16.3731 4.60074 16.5969 4.82544 16.8766 4.80672C17.1376 4.78799 17.3427 4.56329 17.3427 4.30114ZM17.9021 8.45813C19.17 7.03501 19.2073 6.04258 19.3192 3.88918C19.3192 3.88918 19.4497 2.82184 19.5988 2.01666C19.6361 1.86686 19.6548 1.62343 19.5802 1.58598C19.5429 1.51108 19.3005 1.5298 19.1514 1.56725C18.3496 1.71706 17.2868 1.82941 17.2868 1.82941C15.1425 1.94176 14.1356 1.96048 12.7186 3.2338C12.7186 3.2338 9.00807 6.71668 11.6931 9.45056C11.6931 9.45056 11.9168 9.65654 12.1033 9.58164C12.4016 9.48802 14.1543 7.67167 14.8442 6.97884C15.5714 6.26728 16.2053 5.44337 16.2613 5.25612C16.2613 5.23739 16.2799 5.18122 16.2613 5.14377C16.224 4.99397 16.0375 4.90034 16.0375 4.90034C16.0002 4.88162 15.9629 4.84417 15.8511 4.90034C15.59 5.03142 15.0493 5.44337 14.1543 6.32346C13.222 7.25972 12.1033 8.5143 12.1033 8.5143C10.8913 6.92266 12.8491 4.52584 12.8491 4.52584C14.1356 2.97164 16.6715 2.50351 18.4987 2.61587C18.6106 4.45094 18.1445 6.99757 16.5969 8.2896C16.5969 8.2896 14.8815 9.58164 13.4085 9.31949C13.3525 9.31949 13.3152 9.31949 13.2966 9.33822C12.961 9.58165 12.9237 9.9936 13.222 10.3119C13.2593 10.3307 13.2593 10.3307 13.3152 10.3681C15.6273 10.8737 17.9021 8.45813 17.9021 8.45813ZM16.8766 17.5399C17.1376 17.5399 17.3614 17.3152 17.3427 17.0343C17.3427 16.7721 17.119 16.5474 16.8393 16.5661C16.5782 16.5661 16.3545 16.7908 16.3731 17.0717C16.3918 17.3339 16.6155 17.5399 16.8766 17.5399ZM12.7372 18.1016C14.1543 19.3749 15.1425 19.4124 17.2868 19.5247C17.2868 19.5247 18.3496 19.6558 19.1514 19.8056C19.3005 19.8431 19.5429 19.8618 19.5802 19.7869C19.6548 19.7494 19.6361 19.506 19.5988 19.3562C19.4497 18.551 19.3378 17.4837 19.3378 17.4837C19.2259 15.3303 19.2073 14.3191 17.9394 12.896C17.9394 12.896 14.4713 9.16969 11.749 11.8661C11.749 11.8661 11.5439 12.0908 11.6185 12.2781C11.7117 12.5777 13.5203 14.3378 14.2102 15.0307C14.9188 15.761 15.7392 16.3976 15.9256 16.4538C15.9443 16.4538 16.0002 16.4725 16.0375 16.4538C16.1867 16.4163 16.2799 16.2478 16.2799 16.2478C16.2986 16.2104 16.3358 16.1729 16.2799 16.0606C16.1494 15.7984 15.7392 15.2554 14.8628 14.3753C13.9305 13.439 12.6813 12.3155 12.6813 12.3155C14.2662 11.0984 16.6528 13.0645 16.6528 13.0645C18.2004 14.3566 18.6666 16.9032 18.5547 18.7383C16.7274 18.8506 14.1916 18.3825 12.905 16.8096C12.905 16.8096 11.6185 15.0869 11.8795 13.6076C11.8795 13.5514 11.8795 13.5139 11.8609 13.4952C11.6185 13.1769 11.2083 13.1207 10.8913 13.4203C10.8726 13.4578 10.8726 13.4578 10.8354 13.5139C10.3319 15.8171 12.7372 18.1016 12.7372 18.1016ZM3.69404 17.0717C3.69404 17.3339 3.91779 17.5586 4.19747 17.5399C4.45851 17.5399 4.68226 17.3152 4.66362 17.0343C4.66362 16.7721 4.43987 16.5474 4.16018 16.5661C3.89914 16.5849 3.69404 16.8096 3.69404 17.0717ZM3.13467 12.9147C1.86676 14.3378 1.82946 15.3303 1.71759 17.4837C1.71759 17.4837 1.58707 18.551 1.4379 19.3562C1.40061 19.506 1.38197 19.7494 1.45655 19.7869C1.49384 19.8618 1.73624 19.8431 1.8854 19.8056C2.68717 19.6558 3.74997 19.5247 3.74997 19.5247C5.89423 19.4124 6.9011 19.3937 8.31818 18.1203C8.31818 18.1203 12.0287 14.6374 9.34369 11.9036C9.34369 11.9036 9.11995 11.6976 8.93349 11.7725C8.63516 11.8661 6.88246 13.6825 6.19257 14.3753C5.46538 15.0869 4.83143 15.9108 4.77549 16.098C4.77549 16.1355 4.75684 16.1729 4.77549 16.2104C4.81278 16.3602 4.98059 16.4538 4.98059 16.4538C5.01788 16.4725 5.05518 16.51 5.16705 16.4538C5.42809 16.3227 5.96882 15.9108 6.84517 15.0307C7.77745 14.0944 8.8962 12.8398 8.8962 12.8398C10.1082 14.4315 8.15037 16.8283 8.15037 16.8283C6.86381 18.3825 4.32799 18.8506 2.50071 18.7383C2.38884 16.9032 2.85498 14.3566 4.40258 13.0645C4.40258 13.0645 6.11798 11.7725 7.591 12.0346C7.64693 12.0346 7.68422 12.0346 7.70287 12.0159C8.03849 11.7725 8.07578 11.3605 7.77745 11.0422C7.74016 11.0235 7.74016 11.0235 7.68422 10.986C5.40944 10.4992 3.13467 12.9147 3.13467 12.9147Z" fill="#FFFFFE"/>
  <path d="M11.9165 32.258V35.8906C10.3689 37.6883 8.82129 38.456 6.39735 38.456C2.16477 38.456 0.0205078 35.3289 0.0205078 31.3779C0.0205078 29.0559 0.635817 27.0149 2.42581 25.4607C3.67507 24.3559 5.2786 23.8503 6.93807 23.8503C8.07546 23.8503 8.97046 24.1874 9.90275 24.7491L10.8164 24.075H11.3012V28.0073H10.4808C10.1078 25.8352 9.64171 24.5806 7.12453 24.5806C5.55829 24.5806 4.38361 25.236 3.95476 26.7715C3.5632 28.101 3.48861 29.599 3.48861 30.9846C3.48861 32.3141 3.54455 33.6811 3.7683 35.0106C4.01069 36.6396 4.71923 37.8381 6.54651 37.8381C7.32963 37.8381 7.83307 37.7444 8.3738 37.1452C8.70942 36.752 8.83994 36.4898 8.83994 35.9655V32.258H6.71433V31.434H13.203V32.258H11.9165ZM24.3159 38.1751V37.501H22.7124V30.891C22.7124 29.5615 22.3954 28.7938 21.1088 28.2508C20.3816 27.9324 19.4867 27.8013 18.7035 27.8013C17.1559 27.8013 14.471 28.4567 14.471 30.4416C14.471 31.2093 15.049 31.7711 15.8134 31.7711C16.5966 31.7711 17.1746 31.1906 17.1746 30.4229C17.1746 29.8611 16.6898 29.5053 16.6898 29.1308C16.6898 28.5878 17.7899 28.438 18.1442 28.438C19.5612 28.438 19.8409 28.9998 19.8409 30.2731V32.1831C18.2747 32.3516 16.3169 32.5201 15.0117 33.4938C14.1913 34.093 13.6319 34.9731 13.6319 36.0217C13.6319 37.6883 14.9184 38.4373 16.466 38.4373C17.8831 38.4373 19.0205 37.8193 19.9342 36.7707C20.0274 37.0142 20.1393 37.2389 20.2698 37.4448C20.7919 38.1377 21.9292 38.1751 22.7124 38.1751H24.3159ZM19.8596 32.8384V34.6922C19.8596 35.4225 19.785 36.0592 19.1883 36.5648C18.89 36.8082 18.5171 36.958 18.1255 36.958C17.0814 36.958 16.466 36.1902 16.466 35.1791C16.466 33.1755 18.256 32.9321 19.8596 32.8384ZM32.9675 31.3966C32.1471 31.3966 31.4386 30.8348 31.4386 29.9922C31.4386 29.3555 31.8488 29.0185 31.8488 28.85C31.8488 28.7002 31.6437 28.6065 31.5131 28.6065C31.1962 28.6065 30.5809 29.393 30.4131 29.599C29.7045 30.5165 29.4435 31.7711 29.4435 32.9133V37.4823H31.4386V38.1751H24.782V37.4823H26.4042V28.7751H24.782V28.0822H29.4621V29.9173C30.2079 28.7189 30.9165 27.7639 32.4641 27.7639C33.6574 27.7639 34.571 28.5316 34.571 29.7675C34.571 30.7225 33.9371 31.3966 32.9675 31.3966ZM47.4925 38.1564V37.4823H45.9077V23.9065H41.2649V24.5806H42.8498V29.393C42.0107 28.3818 41.1157 27.8201 39.7732 27.8201C39.102 27.8201 38.4121 28.0261 37.8527 28.3257C36.0254 29.2994 35.1864 31.2468 35.1864 33.2691C35.1864 36.1341 36.9391 38.4747 39.9037 38.4747C41.414 38.4747 42.0666 37.8381 42.8684 36.6584V38.1751H47.4925V38.1564ZM40.5004 28.6065C41.3767 28.6065 42.1599 29.3181 42.5328 30.0484C42.9803 30.9097 42.9803 32.2392 42.9803 33.1942C42.9803 33.9058 42.9616 35.1042 42.6819 35.797C42.3277 36.6584 41.47 37.6508 40.4817 37.6508C38.4867 37.6508 38.3934 34.505 38.3934 33.1006C38.3561 31.6587 38.4307 28.6065 40.5004 28.6065ZM57.7104 32.4639C57.5053 31.1906 57.3188 30.2544 56.4238 29.2806C55.5102 28.2882 54.1677 27.8013 52.8439 27.8013C49.786 27.8013 47.5298 30.0297 47.5298 33.0819C47.5298 36.2839 49.8978 38.456 53.0303 38.456C55.2865 38.456 56.5917 37.3138 57.5985 35.4038L57.0019 35.1042C56.1255 36.5273 55.1373 37.707 53.3287 37.707C50.9793 37.707 50.8301 35.5161 50.8301 33.7185V32.4639H57.7104ZM54.5406 31.7711H50.8861C50.9047 30.1795 50.6623 28.3444 52.8252 28.3444C54.1677 28.3444 54.522 29.187 54.522 30.348V31.7711H54.5406ZM65.6162 38.1751V37.501H66.9587V31.3591C66.9587 30.2356 66.9587 28.8687 65.4857 28.8687C64.3483 28.8687 63.2482 30.0109 62.9685 31.0595C62.8566 31.5651 62.8753 32.0894 62.8753 32.595V37.501H64.4229V38.1751H58.2511V37.501H59.8733V28.7751H58.2511V28.0822H62.8939V29.6364C63.5092 28.9061 63.9194 28.4942 64.8144 28.1384C65.3924 27.895 66.0264 27.7639 66.6417 27.7639C67.0892 27.7639 67.574 27.8388 68.0028 27.9699C69.6437 28.4567 70.0352 29.5241 70.0352 31.0783V37.5197H71.6201V38.1938H65.6162M74.9763 38.1751V37.4823H76.6358V24.824H74.9763V24.1312H81.4651V24.824H79.8056V37.4823H81.4651V38.1751H74.9763ZM89.5014 38.1751V37.501H90.8439V31.3591C90.8439 30.2356 90.8439 28.8687 89.3709 28.8687C88.2148 28.8687 87.1334 30.0109 86.8537 31.0595C86.7418 31.5651 86.7605 32.0894 86.7605 32.595V37.501H88.3081V38.1751H82.1363V37.501H83.7585V28.7751H82.1363V28.0822H86.7791V29.6364C87.3944 28.9061 87.8046 28.4942 88.6996 28.1384C89.2776 27.895 89.9116 27.7639 90.5269 27.7639C90.9744 27.7639 91.4592 27.8388 91.888 27.9699C93.5289 28.4567 93.9204 29.5241 93.9204 31.0783V37.5197H95.5053V38.1938H89.5014M103.392 38.1751V37.501H104.735V31.3591C104.735 30.2356 104.735 28.8687 103.262 28.8687C102.106 28.8687 101.024 30.0109 100.745 31.0595C100.633 31.5651 100.652 32.0894 100.652 32.595V37.501H102.199V38.1751H96.0274V37.501H97.6496V28.7751H96.0274V28.0822H100.652V29.6364C101.267 28.9061 101.677 28.4942 102.572 28.1384C103.15 27.895 103.784 27.7639 104.399 27.7639C104.847 27.7639 105.332 27.8388 105.76 27.9699C107.401 28.4567 107.793 29.5241 107.793 31.0783V37.5197H109.378V38.1938H103.392M42.8684 1.54861V19.7121L44.2855 19.8993V20.9666H37.256V19.8993L38.7663 19.7121V11.4542H29.7977V19.7308L31.1775 19.918V20.9854H24.2786V19.918L25.6584 19.7308V1.56733L24.2786 1.38008V0.350194H31.1775V1.38008L29.7977 1.56733V9.3383H38.7663V1.56733L37.256 1.38008V0.350194H44.2855V1.38008L42.8684 1.54861ZM52.4337 19.8431L53.7575 20.0304V20.9666H47.3061V20.0304L48.6299 19.8431V7.4096L47.3061 7.22234V6.28608H52.4337V19.8431ZM56.573 20.0678L57.8596 19.8806V1.41753L56.573 1.23028V0.312744H61.7006V19.8806L63.0244 20.0678V20.9854H56.573V20.0678ZM70.8556 6.28608H74.3238V7.67175H70.8556V16.4164C70.8556 18.6634 71.3218 19.3937 73.3728 19.3937C74.1373 19.3937 74.7899 19.3937 75.4239 19.2439V20.2551C73.5593 20.9105 71.993 21.1914 70.6692 21.1914C67.7045 21.1914 67.0146 19.8431 67.0146 17.2778V7.69048H64.311V6.30481H67.1078V3.21515L70.8556 2.09164V6.28608ZM91.6829 13.7762C91.6829 18.3451 88.6064 21.4161 83.7398 21.4161C79.0411 21.4161 76.0578 19.4125 76.0578 13.7762C76.0578 9.03869 79.153 5.87413 84.0009 5.87413C88.7928 5.87413 91.6829 8.72036 91.6829 13.7762ZM87.469 13.6825C87.469 9.03869 86.0892 7.01637 83.8517 7.01637C81.6888 7.01637 80.2904 8.96379 80.2904 13.6825C80.2904 18.3451 81.6702 20.2925 83.8517 20.2925C86.1638 20.2925 87.469 18.4387 87.469 13.6825ZM109.191 20.0304V20.9666H102.74V20.0304L104.026 19.8431V11.473C104.026 9.15104 103.169 8.12116 101.416 8.12116C100.596 8.12116 99.309 8.68291 98.3581 9.3383V19.8244L99.6819 20.0117V20.9479H93.1932V20.0117L94.5171 19.8244V7.4845L93.1932 7.29725V6.26736H98.3581V8.30841C99.9616 7.01637 101.509 5.98648 103.672 5.98648C106.562 5.98648 107.867 7.67175 107.867 11.0048V19.8431L109.191 20.0304ZM52.6201 2.39124C52.6201 3.53348 51.6878 4.45102 50.5504 4.45102C49.3944 4.45102 48.4621 3.53348 48.4621 2.39124C48.4621 1.24901 49.3944 0.33147 50.5504 0.33147C51.6878 0.33147 52.6201 1.24901 52.6201 2.39124ZM110.813 27.5017L111.336 26.1161H111.876V28.0635H111.522V26.5468L110.944 28.0635H110.683L110.105 26.5468H110.086V28.0635H109.751V26.1161H110.291L110.813 27.5017ZM109.34 26.4344H108.744V28.0635H108.371V26.4344H107.774V26.1348H109.34V26.4344Z" fill="#4E4F4F"/>
</svg>