<svg class="svg-icon" viewBox="0 0 1024 1024" version="1.1" xmlns="http://www.w3.org/2000/svg"><path d="M1022.750236 511.371087C1022.750236 229.408252 793.341984 0 511.371087 0 229.408252 0 0 229.408252 0 511.371087s229.408252 511.37915 511.371087 511.379149 511.37915-229.408252 511.379149-511.379149z m-971.655055 0c0-253.806866 206.469039-460.275906 460.275906-460.275906 253.814929 0 460.283969 206.469039 460.283968 460.275906 0 253.814929-206.469039 460.283969-460.283968 460.283968-253.806866 0-460.275906-206.469039-460.275906-460.283968zM529.520882 751.632126l143.690583-143.698646a25.430677 25.430677 0 0 0 0-36.081889 25.430677 25.430677 0 0 0-36.08189 0L537.027528 671.969764V289.267906a25.640315 25.640315 0 0 0-25.656441-25.656441 25.640315 25.640315 0 0 0-25.648378 25.656441v382.484157L385.612598 571.650016a25.430677 25.430677 0 0 0-36.073826 0 25.430677 25.430677 0 0 0 0 36.073827l143.690582 143.698645a25.398425 25.398425 0 0 0 18.141733 7.498583c6.676157 0 13.142677-2.28989 18.141732-7.288945z" fill="#5EC291" /></svg>