<svg xmlns="http://www.w3.org/2000/svg" width="208" height="32" viewBox="0 0 208 32" fill="none">
  <path d="M15.0489 2.92705C15.3483 2.00574 16.6517 2.00574 16.9511 2.92705L19.3677 10.3647C19.5016 10.7768 19.8855 11.0557 20.3188 11.0557H28.1392C29.1079 11.0557 29.5107 12.2953 28.727 12.8647L22.4001 17.4615C22.0496 17.7161 21.903 18.1675 22.0369 18.5795L24.4535 26.0172C24.7529 26.9385 23.6984 27.7047 22.9147 27.1353L16.5878 22.5385C16.2373 22.2839 15.7627 22.2839 15.4122 22.5385L9.08533 27.1353C8.30162 27.7047 7.24714 26.9385 7.54649 26.0172L9.96315 18.5795C10.097 18.1675 9.95036 17.7161 9.59987 17.4615L3.27299 12.8647C2.48928 12.2953 2.89206 11.0557 3.86078 11.0557H11.6812C12.1145 11.0557 12.4984 10.7768 12.6323 10.3647L15.0489 2.92705Z" fill="#5EC291"/>
  <path d="M59.0489 2.92705C59.3483 2.00574 60.6517 2.00574 60.9511 2.92705L63.3677 10.3647C63.5016 10.7768 63.8855 11.0557 64.3188 11.0557H72.1392C73.1079 11.0557 73.5107 12.2953 72.727 12.8647L66.4001 17.4615C66.0496 17.7161 65.903 18.1675 66.0369 18.5795L68.4535 26.0172C68.7529 26.9385 67.6984 27.7047 66.9147 27.1353L60.5878 22.5385C60.2373 22.2839 59.7627 22.2839 59.4122 22.5385L53.0853 27.1353C52.3016 27.7047 51.2471 26.9385 51.5465 26.0172L53.9631 18.5795C54.097 18.1675 53.9504 17.7161 53.5999 17.4615L47.273 12.8647C46.4893 12.2953 46.8921 11.0557 47.8608 11.0557H55.6812C56.1145 11.0557 56.4984 10.7768 56.6323 10.3647L59.0489 2.92705Z" fill="#5EC291"/>
  <path d="M103.049 2.92705C103.348 2.00574 104.652 2.00574 104.951 2.92705L107.368 10.3647C107.502 10.7768 107.886 11.0557 108.319 11.0557H116.139C117.108 11.0557 117.511 12.2953 116.727 12.8647L110.4 17.4615C110.05 17.7161 109.903 18.1675 110.037 18.5795L112.454 26.0172C112.753 26.9385 111.698 27.7047 110.915 27.1353L104.588 22.5385C104.237 22.2839 103.763 22.2839 103.412 22.5385L97.0853 27.1353C96.3016 27.7047 95.2471 26.9385 95.5465 26.0172L97.9631 18.5795C98.097 18.1675 97.9504 17.7161 97.5999 17.4615L91.273 12.8647C90.4893 12.2953 90.8921 11.0557 91.8608 11.0557H99.6812C100.114 11.0557 100.498 10.7768 100.632 10.3647L103.049 2.92705Z" fill="#5EC291"/>
  <path d="M147.049 2.92705C147.348 2.00574 148.652 2.00574 148.951 2.92705L151.368 10.3647C151.502 10.7768 151.886 11.0557 152.319 11.0557H160.139C161.108 11.0557 161.511 12.2953 160.727 12.8647L154.4 17.4615C154.05 17.7161 153.903 18.1675 154.037 18.5795L156.454 26.0172C156.753 26.9385 155.698 27.7047 154.915 27.1353L148.588 22.5385C148.237 22.2839 147.763 22.2839 147.412 22.5385L141.085 27.1353C140.302 27.7047 139.247 26.9385 139.546 26.0172L141.963 18.5795C142.097 18.1675 141.95 17.7161 141.6 17.4615L135.273 12.8647C134.489 12.2953 134.892 11.0557 135.861 11.0557H143.681C144.114 11.0557 144.498 10.7768 144.632 10.3647L147.049 2.92705Z" fill="#5EC291"/>
  <path d="M191.049 2.92705C191.348 2.00574 192.652 2.00574 192.951 2.92705L195.368 10.3647C195.502 10.7768 195.886 11.0557 196.319 11.0557H204.139C205.108 11.0557 205.511 12.2953 204.727 12.8647L198.4 17.4615C198.05 17.7161 197.903 18.1675 198.037 18.5795L200.454 26.0172C200.753 26.9385 199.698 27.7047 198.915 27.1353L192.588 22.5385C192.237 22.2839 191.763 22.2839 191.412 22.5385L185.085 27.1353C184.302 27.7047 183.247 26.9385 183.546 26.0172L185.963 18.5795C186.097 18.1675 185.95 17.7161 185.6 17.4615L179.273 12.8647C178.489 12.2953 178.892 11.0557 179.861 11.0557H187.681C188.114 11.0557 188.498 10.7768 188.632 10.3647L191.049 2.92705Z" fill="#5EC291"/>
</svg>