<svg xmlns="http://www.w3.org/2000/svg" width="48" height="46" viewBox="0 0 48 46" fill="none">
  <path d="M47.0945 9.64291C46.9048 8.93679 46.4517 8.3466 45.8178 7.98074L42.8127 6.24331C41.5495 5.51912 39.806 5.99037 39.0758 7.24602L24.6779 32.1348C24.6298 32.2191 24.5966 32.3109 24.5831 32.4073C24.5741 32.4735 23.8423 39.0981 25.3479 39.9743C25.4925 40.0571 25.6731 40.0948 25.8824 40.0948C27.8246 40.0948 32.1818 36.8638 32.2284 36.8262C32.3052 36.7659 32.3684 36.6922 32.4166 36.6079L46.819 11.7176C47.1864 11.0868 47.2827 10.349 47.0945 9.64291ZM26.1444 38.5877C25.9095 37.8093 25.8568 35.5058 25.9682 33.7518L30.3781 36.2992C28.9146 37.2839 26.9258 38.395 26.1444 38.5877ZM31.4907 35.2047L26.3567 32.2356L38.8891 10.5824L44.0262 13.5484L31.4907 35.2047ZM45.5182 10.9663L44.7789 12.2461L39.6434 9.28006L40.3811 8.00032C40.7094 7.43573 41.4983 7.22344 42.0629 7.54714L45.0665 9.28307C45.3511 9.44718 45.5558 9.71367 45.6416 10.0313C45.7245 10.3505 45.6823 10.6803 45.5182 10.9663Z" fill="white"/>
  <path d="M35.7952 33.9162C35.3796 33.9162 35.0424 34.2535 35.0424 34.669V42.078C35.0424 43.4104 33.9584 44.4929 32.6274 44.4929H3.92053C2.5896 44.4929 1.50558 43.4089 1.50558 42.078V11.3701H7.88021C10.0437 11.3701 11.8007 9.61163 11.8007 7.44961V1.50558H32.6274C33.9584 1.50558 35.0424 2.5896 35.0424 3.92053V9.07413C35.0424 9.48967 35.3796 9.82692 35.7952 9.82692C36.2107 9.82692 36.548 9.48967 36.548 9.07413V3.92053C36.548 1.75701 34.7894 0 32.6274 0H11.0495C10.8552 0 10.6685 0.0752789 10.5285 0.209276L0.231859 10.0753C0.0828066 10.2184 0 10.4141 0 10.6189V42.0795C0 44.243 1.75852 46 3.92053 46H32.6289C34.791 46 36.5495 44.2415 36.5495 42.0795V34.6705C36.548 34.2535 36.2122 33.9162 35.7952 33.9162ZM10.2967 2.51733V7.44961C10.2967 8.78205 9.21265 9.86456 7.88171 9.86456H2.62724L10.2967 2.51733Z" fill="white"/>
  <path d="M6.49498 37.9785C6.07944 37.9785 5.74219 38.3158 5.74219 38.7313C5.74219 39.1468 6.07944 39.4841 6.49498 39.4841H23.3394C23.1858 39.0219 23.0789 38.5115 23.0037 37.9785H6.49498Z" fill="white"/>
  <path d="M24.026 30.2556H6.49498C6.07944 30.2556 5.74219 30.5929 5.74219 31.0084C5.74219 31.4239 6.07944 31.7612 6.49498 31.7612H23.2446C23.2897 31.6347 23.3078 31.4977 23.3755 31.3803L24.026 30.2556Z" fill="white"/>
  <path d="M28.4915 22.5352H6.49498C6.07944 22.5352 5.74219 22.8724 5.74219 23.2879C5.74219 23.7035 6.07944 24.0407 6.49498 24.0407H27.6213L28.4915 22.5352Z" fill="white"/>
  <path d="M30.8086 15.566C30.8086 15.1505 30.4713 14.8132 30.0558 14.8132H6.49498C6.07944 14.8132 5.74219 15.1505 5.74219 15.566C5.74219 15.9816 6.07944 16.3188 6.49498 16.3188H30.0558C30.4713 16.3188 30.8086 15.9831 30.8086 15.566Z" fill="white"/>
  <path d="M30.0559 7.09424H14.6131C14.1976 7.09424 13.8604 7.43149 13.8604 7.84703C13.8604 8.26257 14.1976 8.59982 14.6131 8.59982H30.0559C30.4714 8.59982 30.8087 8.26257 30.8087 7.84703C30.8087 7.43149 30.4714 7.09424 30.0559 7.09424Z" fill="white"/>
</svg>