<svg xmlns="http://www.w3.org/2000/svg" width="57" height="46" viewBox="0 0 57 46" fill="none">
  <path d="M55.746 43.9709H52.7312V12.3046C52.7312 12.1715 52.705 12.0396 52.6541 11.9166C52.6031 11.7936 52.5285 11.6818 52.4343 11.5876C52.3402 11.4935 52.2284 11.4188 52.1054 11.3679C51.9823 11.3169 51.8505 11.2907 51.7173 11.2908H44.8579C44.7248 11.2907 44.5929 11.3169 44.4699 11.3679C44.3469 11.4188 44.2351 11.4935 44.141 11.5876C44.0468 11.6818 43.9721 11.7936 43.9212 11.9166C43.8702 12.0396 43.844 12.1715 43.8441 12.3046V43.9709H39.454V17.9814C39.454 17.8482 39.4278 17.7163 39.3769 17.5933C39.3259 17.4703 39.2513 17.3585 39.1571 17.2644C39.063 17.1702 38.9512 17.0955 38.8282 17.0446C38.7051 16.9937 38.5733 16.9675 38.4401 16.9675H31.5807C31.4475 16.9675 31.3157 16.9937 31.1927 17.0446C31.0696 17.0955 30.9579 17.1702 30.8637 17.2644C30.7696 17.3585 30.6949 17.4703 30.6439 17.5933C30.593 17.7163 30.5668 17.8482 30.5668 17.9814V43.9709H26.1768V26.2596C26.1769 26.1264 26.1507 25.9946 26.0997 25.8715C26.0488 25.7485 25.9741 25.6367 25.8799 25.5426C25.7858 25.4484 25.674 25.3737 25.551 25.3228C25.428 25.2719 25.2961 25.2457 25.163 25.2457H18.3035C18.1704 25.2457 18.0385 25.2719 17.9155 25.3228C17.7925 25.3737 17.6807 25.4484 17.5865 25.5426C17.4924 25.6367 17.4177 25.7485 17.3668 25.8715C17.3158 25.9946 17.2896 26.1264 17.2897 26.2596V43.9709H12.8996V32.4096C12.8996 32.2764 12.8734 32.1446 12.8225 32.0215C12.7715 31.8985 12.6969 31.7867 12.6027 31.6926C12.5085 31.5984 12.3968 31.5237 12.2737 31.4728C12.1507 31.4219 12.0189 31.3957 11.8857 31.3957H5.02632C4.89316 31.3957 4.76131 31.4219 4.63829 31.4728C4.51526 31.5237 4.40348 31.5984 4.30933 31.6926C4.21518 31.7867 4.1405 31.8985 4.08956 32.0215C4.03862 32.1446 4.01242 32.2764 4.01246 32.4096V43.9709H0.997613C0.731552 43.9752 0.477842 44.0839 0.291213 44.2736C0.104583 44.4633 -7.98241e-06 44.7187 4.56932e-10 44.9848C7.98333e-06 45.2509 0.104615 45.5063 0.291255 45.696C0.477896 45.8857 0.731612 45.9944 0.997674 45.9987C8.50144 45.9997 53.315 46.001 55.746 45.9987C56.0114 45.9933 56.2641 45.8842 56.4499 45.6946C56.6357 45.5051 56.7398 45.2502 56.7398 44.9848C56.7398 44.7194 56.6357 44.4645 56.4499 44.275C56.2641 44.0854 56.0114 43.9762 55.746 43.9709ZM6.04018 43.9709V33.4234H10.8719V43.9709H6.04018ZM19.3174 43.9709V27.2734H24.1491V43.9709H19.3174ZM32.5946 43.9709V18.9952H37.4263V43.9709H32.5946ZM45.8718 43.9709V13.3185H50.7035V43.9709H45.8718Z" fill="white"/>
  <path d="M37.1389 3.03387L41.5926 2.38486C28.4128 18.0477 6.37204 22.558 6.1419 22.6036C5.88219 22.6597 5.65485 22.8154 5.50878 23.0374C5.36271 23.2593 5.30959 23.5297 5.36084 23.7904C5.4121 24.0511 5.56363 24.2813 5.78284 24.4314C6.00205 24.5816 6.27143 24.6397 6.53303 24.5932C7.48451 24.4062 28.7296 20.0704 42.3775 4.58862L41.8497 7.82544C41.8123 8.08833 41.8794 8.35543 42.0367 8.56936C42.194 8.7833 42.429 8.92702 42.6911 8.96966C42.9532 9.0123 43.2215 8.95045 43.4386 8.79741C43.6556 8.64437 43.8039 8.41233 43.8517 8.15112L44.9883 1.17396C45.0101 1.01734 44.9956 0.857822 44.9459 0.70771C44.8962 0.557597 44.8127 0.42091 44.7018 0.308199C44.5909 0.195487 44.4556 0.109767 44.3063 0.0576555C44.157 0.00554362 43.9977 -0.0115666 43.8408 0.00764686L36.8458 1.02694C36.5839 1.07053 36.3495 1.21507 36.193 1.42955C36.0365 1.64402 35.9703 1.91132 36.0087 2.17405C36.047 2.43678 36.1869 2.67399 36.3982 2.83475C36.6095 2.99551 36.8754 3.067 37.1389 3.03387Z" fill="white"/>
</svg>