<svg xmlns="http://www.w3.org/2000/svg" width="46" height="46" viewBox="0 0 46 46" fill="none">
  <path d="M22.9986 0C10.318 0 0 10.318 0 23C0 35.682 10.318 46 22.9986 46C35.6792 46 45.9972 35.682 45.9972 23C45.9972 10.318 35.6792 0 22.9986 0ZM38.6854 37.8041C38.6322 37.8027 38.5791 37.7929 38.5245 37.8041C38.3007 37.8489 38.1188 37.8433 38.0391 37.7873C37.0193 37.0739 37.0613 36.8151 37.183 36.0471C37.2571 35.5841 37.3481 35.0106 37.232 34.2636C37.0012 32.7752 36.9998 31.8911 39.6632 31.0112C40.9347 30.5902 41.6426 30.0069 41.8286 29.2263C42.1056 28.0583 41.0606 27.0119 40.3696 26.3181C40.2087 26.1586 40.1724 26.0761 40.1668 26.0761C40.1808 26.0173 40.2731 25.8677 40.3416 25.7571C40.5598 25.4074 40.89 24.8787 40.9152 24.0911C40.9361 23.4868 40.7641 23.028 40.4032 22.7272C39.7429 22.1733 38.7721 22.3845 37.6474 22.6279L37.1005 22.7426C35.9842 22.9678 35.6247 22.7608 35.5421 22.6923C35.5086 22.6643 35.419 22.5915 35.4176 22.316C35.4176 20.987 35.1057 19.9981 33.4019 18.2775C32.1961 17.0591 32.3583 16.5848 32.8983 15.0139L33.0592 14.5439C33.5418 13.0947 35.6513 12.9534 36.6388 13.2849C37.7439 13.6542 38.2755 12.9506 38.5301 12.6107C38.5833 12.5407 38.663 12.4344 38.6434 12.426C38.6434 12.426 38.691 12.426 38.8015 12.4764C39.1596 12.6331 39.5345 12.6359 39.8898 12.4764C40.3234 12.2862 40.7039 11.8399 41.0536 11.1741C43.289 14.5747 44.5983 18.6342 44.5983 22.9986C44.5983 28.7311 42.3406 33.9335 38.6854 37.8041ZM14.5481 3.12365C14.5397 3.24675 14.5355 3.37124 14.5579 3.49155C14.6642 4.07487 15.0923 4.54628 15.8267 4.8918C17.7319 5.78707 19.8526 5.7465 21.2668 5.72132C21.4808 5.71713 21.7117 5.71573 21.9327 5.71433C21.6347 5.84023 21.2416 5.94794 20.8765 6.04866C19.6232 6.39277 18.0648 6.81943 17.627 8.42811C17.1276 10.2606 16.5625 10.1977 15.4532 9.9123C15.123 9.82557 14.7258 9.61854 14.3439 9.4171C13.5437 8.99605 12.6345 8.51484 11.7658 8.88134C11.1895 9.12194 10.7796 9.6675 10.5124 10.5488C10.234 11.4636 9.84795 11.6049 9.43948 11.7546C9.13593 11.8651 8.72187 12.0162 8.52323 12.4736C8.31061 12.9576 8.45889 13.5171 8.74705 14.2096C9.70667 16.5121 10.6887 18.8972 13.4752 18.3866C14.2655 18.2425 14.8153 17.9711 15.2154 17.7725C15.8868 17.4381 16.0057 17.3808 16.9989 18.4425L17.3612 18.8328C19.1993 20.815 20.6653 22.3859 23.1637 22.1663C24.729 22.0348 27.191 22.7216 27.8191 23.7162C27.9464 23.9176 28.0569 24.2086 27.7827 24.6786C27.1322 25.7907 25.7138 26.9364 24.4618 27.9478C23.1161 29.0333 21.9551 29.9705 21.6011 30.9161C21.3256 31.6505 20.3366 32.522 19.5406 33.2228C18.7824 33.8915 18.1278 34.4678 17.8816 35.04C17.4535 36.0373 18.0425 36.6514 18.5139 37.1424C18.8216 37.4628 19.1685 37.8237 19.5029 38.442C19.4539 38.5049 19.1657 38.6462 18.63 38.6462C17.8438 38.6462 16.8129 38.3399 16.2799 37.653C15.0055 36.015 15.0993 33.4229 15.6112 31.5428C16.3023 29.0011 15.3301 26.7196 13.0737 25.5921C11.9057 25.0088 11.3559 21.9718 11.286 20.1953C11.2818 20.103 11.2594 20.0106 11.2202 19.9267C11.1909 19.8652 10.4914 18.4048 8.77083 17.3206C8.28123 17.0115 8.00985 16.2127 7.74967 15.4406C7.35379 14.2739 6.85999 12.8205 5.31705 12.6666C5.11002 12.6457 4.77849 12.5449 4.30568 12.2288C6.64177 8.19031 10.227 4.96734 14.5481 3.12365ZM1.39886 23C1.39886 19.5728 2.22278 16.3414 3.64822 13.4598C4.19237 13.8053 4.69876 14.0067 5.17857 14.0543C5.76189 14.1131 6.01928 14.6852 6.42635 15.8854C6.74948 16.8422 7.11738 17.9249 8.02804 18.4985C9.14433 19.2007 9.72345 20.103 9.89831 20.4079C9.95426 21.4263 10.3194 25.7711 12.4512 26.8385C14.1005 27.6624 14.7789 29.2837 14.2655 31.1707C13.664 33.3767 13.5885 36.4626 15.179 38.5077C15.9735 39.5303 17.4004 40.0451 18.6244 40.0451C19.2357 40.0451 19.7966 39.9178 20.2023 39.6618C20.8723 39.2393 21.071 38.4965 20.7073 37.7663C20.3268 37.0067 19.8638 36.5241 19.5252 36.1716C19.1056 35.7338 19.114 35.717 19.1699 35.5869C19.2902 35.3043 19.9421 34.7294 20.4667 34.2692C21.4263 33.4243 22.5132 32.4661 22.9105 31.4029C23.1301 30.8168 24.2548 29.9103 25.3403 29.0333C26.686 27.9478 28.2121 26.7154 28.9899 25.3809C29.4669 24.5653 29.4711 23.7078 29.0025 22.9664C27.9589 21.3144 24.8241 20.6205 23.0448 20.7702C21.1983 20.9339 20.089 19.7141 18.3866 17.8788L18.0201 17.4857C16.5541 15.9162 15.8085 15.912 14.5929 16.5177C14.2306 16.6968 13.8207 16.901 13.2234 17.0101C11.7182 17.2885 11.1167 16.2603 10.0396 13.671C9.91789 13.3815 9.86474 13.2024 9.84096 13.0975C9.86753 13.0877 9.89411 13.0779 9.91929 13.0681C10.4257 12.8835 11.3699 12.5394 11.8511 10.9558C11.9812 10.5292 12.1505 10.2368 12.3043 10.1725C12.5673 10.062 13.1926 10.3921 13.692 10.6551C14.1452 10.8929 14.6125 11.1405 15.1021 11.2664C17.2185 11.8203 18.3474 11.1013 18.9769 8.79601C19.1895 8.01545 20.0134 7.73568 21.2458 7.39715C22.2558 7.12158 23.298 6.83481 23.691 5.91996C23.9023 5.42477 23.7792 5.07225 23.6393 4.86382C23.2504 4.2847 22.4461 4.30009 21.2402 4.32387C19.8889 4.35044 18.0341 4.38402 16.424 3.62723C16.0869 3.46777 15.9498 3.31949 15.9358 3.24115C15.919 3.15722 15.9945 2.91382 16.3722 2.52494C16.4016 2.49556 16.4128 2.45919 16.4352 2.42562C18.5055 1.76396 20.7087 1.39886 22.9986 1.39886C29.9705 1.39886 36.1646 4.73373 40.1164 9.87733C39.7415 10.8495 39.4212 11.1671 39.3666 11.1978C38.2168 10.6929 37.6516 11.451 37.411 11.7742C37.3509 11.8525 37.2627 11.9714 37.2348 11.9896C37.2348 11.9896 37.19 11.9952 37.0823 11.9588C35.3757 11.3923 32.4926 11.8287 31.7331 14.1033L31.5778 14.5621C31.0057 16.2267 30.593 17.4298 32.4101 19.2651C34.0216 20.8919 34.0216 21.5522 34.0216 22.3216C34.023 23.0965 34.3699 23.5428 34.6595 23.7792C35.2456 24.2576 36.1325 24.3681 37.3788 24.1177L37.944 23.9988C38.4937 23.8813 39.3233 23.7022 39.4897 23.7848C39.4897 23.7848 39.5233 23.8491 39.5177 24.0463C39.5037 24.4604 39.3428 24.7206 39.1554 25.0213C38.8588 25.4984 38.3636 26.2957 39.3806 27.3113C39.7639 27.696 40.5654 28.4975 40.4675 28.906C40.4437 28.9997 40.2885 29.3354 39.2239 29.6879C35.945 30.7692 35.5044 32.2646 35.8485 34.4818C35.931 35.0106 35.8653 35.4274 35.8009 35.8303C35.6247 36.9368 35.6247 37.8069 37.2348 38.9358C37.2935 38.9763 37.3649 38.9945 37.4278 39.0281C33.5991 42.4805 28.5465 44.6011 22.9986 44.6011C11.0873 44.6011 1.39886 34.9113 1.39886 23Z" fill="white"/>
</svg>