<svg xmlns="http://www.w3.org/2000/svg" width="55" height="46" viewBox="0 0 55 46" fill="none">
  <path d="M27.22 22.6961C29.3522 20.5769 30.6765 17.6437 30.6765 14.4045C30.6765 7.9554 25.4288 2.70776 18.9787 2.70776C12.5286 2.70776 7.27995 7.9554 7.27995 14.4045C7.27995 17.6437 8.60318 20.5779 10.7375 22.6971C6.96499 24.5828 3.11001 26.6074 1.5161 32.973C0.770464 35.9586 0.0419329 40.6739 0.0117451 40.8741C-0.0516492 41.2857 0.145578 41.6932 0.506824 41.9005C0.799645 42.0686 7.80723 46 18.9787 46C30.1522 46 37.1578 42.0686 37.4506 41.9005C37.8118 41.6942 38.0091 41.2867 37.9457 40.8741C37.9155 40.6749 37.1869 35.9586 36.4403 32.973C34.8494 26.6054 30.9924 24.5828 27.22 22.6961ZM9.29246 14.4045C9.29246 9.0643 13.6375 4.72028 18.9787 4.72028C24.3199 4.72028 28.6639 9.0643 28.6639 14.4045C28.6639 19.7467 24.3199 24.0907 18.9787 24.0907C13.6375 24.0907 9.29246 19.7467 9.29246 14.4045ZM18.9787 43.9865C10.187 43.9865 4.0076 41.3763 2.11382 40.4626C2.34828 39.0146 2.91279 35.6828 3.46724 33.46C4.86493 27.8783 8.09803 26.2643 11.8413 24.3946C12.0375 24.296 12.2368 24.1954 12.435 24.0958C14.3036 25.3627 16.5566 26.1023 18.9787 26.1023C21.4008 26.1023 23.6538 25.3617 25.5234 24.0948C25.7226 24.1954 25.9229 24.297 26.1211 24.3967C29.8634 26.2653 33.0955 27.8803 34.4892 33.46C35.0446 35.6838 35.6081 39.0156 35.8436 40.4646C33.9569 41.3803 27.8006 43.9865 18.9787 43.9865Z" fill="white"/>
  <path d="M53.4273 28.467C51.939 22.5029 48.3426 20.583 44.8107 18.816C46.79 16.8186 48.0156 14.0725 48.0156 11.0457C48.0156 4.95482 43.0598 0 36.9689 0C33.4118 0 30.2501 1.69655 28.2275 4.31484C28.7297 4.7757 29.2026 5.26374 29.6323 5.79403C31.2735 3.50882 33.9471 2.01252 36.9689 2.01252C41.9499 2.01252 46.0031 6.06472 46.0031 11.0457C46.0031 16.0277 41.9509 20.0809 36.9689 20.0809C35.1456 20.0809 33.451 19.5335 32.0292 18.6017C31.8209 19.2507 31.5633 19.8806 31.2594 20.4914C32.9278 21.5037 34.8789 22.0934 36.9689 22.0934C39.2441 22.0934 41.3592 21.4011 43.1181 20.2177C43.2952 20.3073 43.4744 20.3979 43.6495 20.4864C47.1502 22.2333 50.172 23.7427 51.4731 28.9571C51.9893 31.0189 52.5116 34.1011 52.737 35.4837C51.127 36.2585 46.4106 38.2408 39.6254 38.6755C39.8146 39.7844 39.9323 40.5512 39.9354 40.5713C39.9404 40.6035 39.9384 40.6347 39.9424 40.6689C48.7009 40.0752 54.0974 37.0625 54.345 36.9196C54.7062 36.7123 54.9034 36.3058 54.84 35.8922C54.8129 35.7051 54.1306 31.2735 53.4273 28.467Z" fill="white"/>
</svg>